<svg viewBox="0 0 1133.93 283.1" xmlns="http://www.w3.org/2000/svg" xmlns:xlink="http://www.w3.org/1999/xlink" id="artwork" overflow="hidden"><defs/><g><path d="M94.34 96.61 144.2 187.93 157.34 163.85 120.5 96.61 94.34 96.61Z" fill="#451DC7"/><path d="M777.96 94.38C747.58 94.38 723.55 112.29 723.55 141.55 723.55 170.81 747.58 188.72 777.96 188.72 808.34 188.72 832.37 170.81 832.37 141.55 832.37 112.29 808.34 94.38 777.96 94.38ZM777.96 178.76C755.38 178.76 745.05 162.24 745.05 141.55 745.05 120.86 755.38 104.34 777.96 104.34 800.54 104.34 810.87 120.86 810.87 141.55 810.87 162.24 800.54 178.76 777.96 178.76Z" fill="#451DC7"/><path d="M629.75 108.98 662.64 108.98 662.64 186.38 683.15 186.38 683.15 108.98 716.04 108.98 716.04 96.59 629.75 96.59 629.75 108.98Z" fill="#451DC7"/><path d="M577.85 130.9C564.75 127.48 552.38 124.26 552.38 116.17 552.38 108.08 563.76 104.37 575.04 104.37 586.32 104.37 596.89 107.17 607.55 112.94L610.14 114.34 610.14 102.47 609.12 101.97C599.5 97.19 586.81 94.34 575.2 94.34 555.72 94.34 534.91 101.52 534.91 121.67 534.91 141.82 554.91 146.39 572.56 151.06 585.84 154.58 598.39 157.9 598.39 166.52 598.39 175.14 586.52 178.72 575.49 178.72 562.44 178.72 549.49 174.63 537 166.66L535.6 165.77 529.8 174.19 531.37 175.25C543.8 183.67 560.81 188.69 576.86 188.69 601.16 188.69 616.86 177.87 616.86 161.34 616.86 141.06 595.23 135.42 577.84 130.88Z" fill="#451DC7"/><path d="M456.39 147.59 507.25 147.59 507.28 135.17 456.39 135.17 456.39 108.98 511.23 108.98 511.27 96.56 435.88 96.56 435.88 186.29 512.04 186.29 512.08 173.87 456.39 173.87 456.39 147.59Z" fill="#451DC7"/><path d="M983.9 173.87 983.9 147.59 1034.76 147.59 1034.8 135.17 983.9 135.17 983.9 108.98 1038.75 108.98 1038.78 96.56 963.39 96.56 963.39 186.29 1039.55 186.29 1039.59 173.87 983.9 173.87Z" fill="#451DC7"/><path d="M233.33 186.29 247.67 186.31 256.37 170.13 300.86 170.13 309.72 186.29 333.03 186.29 283.17 94.97 233.34 186.29ZM263.04 157.71 278.39 129.12 294.05 157.71 263.03 157.71Z" fill="#451DC7"/><path d="M373.56 153.78 342.24 96.61 318.93 96.61 368.79 187.93 418.62 96.61 404.27 96.59 373.56 153.78Z" fill="#451DC7"/><path d="M926.72 96.56 926.74 152.44 852.51 94.95 852.51 186.32 864.91 186.32 865 130.49 939.12 187.95 939.14 96.56 939.12 96.56 926.72 96.56Z" fill="#451DC7"/><path d="M280.32 61.15 263.98 61.15C246.14 79.85 229.59 99.65 216.72 120.44 211.4 129.04 206.57 137.75 202.21 146.54L174.85 96.6 148.69 96.6 198.55 187.92 198.55 187.87C213.93 141.7 242.07 98.85 280.32 61.15Z" fill="#451DC7"/></g><rect x="425.41" y="-425.41" width="283.11" height="1133.93" fill="none" transform="matrix(6.12323e-17 1 -1 6.12323e-17 708.52 -425.41)"/></svg>