<svg viewBox="0 0 248.37 172.97" xmlns="http://www.w3.org/2000/svg" xmlns:xlink="http://www.w3.org/1999/xlink" id="artwork" overflow="hidden"><defs/><path d="M39.33 58.57 89.19 149.89 102.32 125.82 65.48 58.57 39.33 58.57Z" fill="#451DC7"/><path d="M225.3 23.12 208.96 23.12C191.12 41.82 174.57 61.62 161.7 82.41 156.38 91.01 151.55 99.72 147.19 108.51L119.83 58.57 93.67 58.57 143.53 149.89 143.53 149.84C158.91 103.67 187.05 60.82 225.3 23.12Z" fill="#451DC7"/><g><g><path d="M23.07 28.78 31.03 43.37 33.13 39.52 27.25 28.78 23.07 28.78Z" fill="#451DC7"/><path d="M132.26 28.43C127.41 28.43 123.57 31.29 123.57 35.96 123.57 40.63 127.41 43.49 132.26 43.49 137.11 43.49 140.95 40.63 140.95 35.96 140.95 31.29 137.11 28.43 132.26 28.43ZM132.26 41.91C128.65 41.91 127 39.27 127 35.97 127 32.67 128.65 30.03 132.26 30.03 135.87 30.03 137.52 32.67 137.52 35.97 137.52 39.27 135.87 41.91 132.26 41.91Z" fill="#451DC7"/><path d="M108.59 30.76 113.84 30.76 113.84 43.12 117.12 43.12 117.12 30.76 122.37 30.76 122.37 28.78 108.59 28.78 108.59 30.76Z" fill="#451DC7"/><path d="M100.3 34.26C98.21 33.71 96.23 33.2 96.23 31.91 96.23 30.62 98.05 30.03 99.85 30.03 101.65 30.03 103.34 30.48 105.04 31.4L105.45 31.62 105.45 29.72 105.29 29.64C103.75 28.88 101.73 28.42 99.87 28.42 96.76 28.42 93.43 29.57 93.43 32.78 93.43 35.99 96.62 36.73 99.44 37.47 101.56 38.03 103.57 38.56 103.57 39.94 103.57 41.32 101.67 41.89 99.91 41.89 97.83 41.89 95.76 41.24 93.76 39.96L93.54 39.82 92.61 41.17 92.86 41.34C94.85 42.68 97.56 43.49 100.13 43.49 104.01 43.49 106.52 41.76 106.52 39.12 106.52 35.88 103.06 34.98 100.29 34.26Z" fill="#451DC7"/><path d="M80.9 36.92 89.02 36.92 89.03 34.94 80.9 34.94 80.9 30.76 89.66 30.76 89.66 28.77 77.62 28.77 77.62 43.11 89.79 43.11 89.79 41.12 80.9 41.12 80.9 36.92Z" fill="#451DC7"/><path d="M165.15 41.12 165.15 36.92 173.28 36.92 173.28 34.94 165.15 34.94 165.15 30.76 173.91 30.76 173.92 28.77 161.88 28.77 161.88 43.11 174.04 43.11 174.05 41.12 165.15 41.12Z" fill="#451DC7"/><path d="M45.27 43.11 47.56 43.11C47.56 43.11 48.95 40.53 48.95 40.53L56.06 40.53 57.47 43.11 61.19 43.11 53.23 28.52 45.27 43.11ZM50.01 38.54 52.46 33.97 54.96 38.54 50.01 38.54Z" fill="#451DC7"/><path d="M67.67 37.91 62.67 28.78 58.94 28.78 66.91 43.37 74.87 28.78 72.57 28.78 67.67 37.91Z" fill="#451DC7"/><path d="M156.02 28.77 156.03 37.7 144.17 28.52 144.17 43.11 146.15 43.11 146.16 34.19 158 43.37 158 28.77 158 28.77 156.02 28.77Z" fill="#451DC7"/><path d="M52.78 23.12 50.17 23.12C47.32 26.11 44.68 29.27 42.62 32.59 41.77 33.96 41 35.35 40.3 36.76L35.93 28.78 31.75 28.78 39.71 43.37 39.71 43.37C42.17 35.99 46.66 29.14 52.77 23.12Z" fill="#451DC7"/></g><rect x="75.95" y="-54.6" width="45.22" height="181.12" fill="none" transform="matrix(6.12323e-17 1 -1 6.12323e-17 134.52 -62.6)"/></g><rect x="0" y="0.05" width="248.37" height="172.92" fill="none"/></svg>